<svg width="64" height="64" fill="none" xmlns="http://www.w3.org/2000/svg"><rect width="64" height="64" rx="2" fill="#4760FF"/><rect x="34" y="36" width="4" height="4" rx="1" fill="#fff"/><rect x="22" y="30" width="4" height="12" rx="1" fill="#fff"/><rect x="30" y="34" width="4" height="12" rx="1" transform="rotate(90 30 34)" fill="#fff"/><rect x="40" y="32" width="4" height="4" rx="1" fill="#fff"/><path d="M36 24v-.877c0-1.5 0-2.25-.424-2.792-.423-.543-1.15-.725-2.606-1.088l-1.94-.485c-1.455-.364-2.183-.546-2.606-1.089C28 17.127 28 16.377 28 14.877V12" stroke="#fff" stroke-width="2" stroke-linecap="round"/><path d="M14 36c0-5.118 0-7.676 1.24-9.44a6.3 6.3 0 011.107-1.207C17.963 24 20.31 24 25 24h14c4.691 0 7.037 0 8.653 1.353a6.3 6.3 0 011.107 1.208C50 28.324 50 30.882 50 36s0 7.676-1.24 9.44a6.3 6.3 0 01-1.107 1.207C46.037 48 43.69 48 39 48H25c-4.691 0-7.037 0-8.653-1.353a6.3 6.3 0 01-1.107-1.208C14 43.676 14 41.118 14 36z" stroke="#fff" stroke-width="2"/></svg>