<svg width="64" height="64" fill="none" xmlns="http://www.w3.org/2000/svg"><rect width="64" height="64" rx="2" fill="#4760FF"/><path d="M18 33.52c0-2.716 0-4.074.549-5.268.549-1.193 1.58-2.077 3.642-3.844l2-1.714c3.726-3.194 5.59-4.791 7.809-4.791 2.22 0 4.083 1.597 7.81 4.79l2 1.715c2.061 1.767 3.092 2.651 3.641 3.845.549 1.193.549 2.55.549 5.266V42c0 3.771 0 5.657-1.172 6.828C43.657 50 41.771 50 38 50H26c-3.771 0-5.657 0-6.828-1.172C18 47.657 18 45.771 18 42v-8.48z" stroke="#fff" stroke-width="2"/><path d="M28 39h8v10h-8V39z" fill="#fff" stroke="#fff" stroke-width="2" stroke-linecap="round" stroke-linejoin="round"/></svg>