<svg width="180" height="40" fill="none" xmlns="http://www.w3.org/2000/svg"><path fill-rule="evenodd" clip-rule="evenodd" d="M49.575 13.412c0-5.475 4.438-9.913 9.913-9.913 5.475 0 9.913 4.438 9.913 9.913H72.9C72.9 6.005 66.895 0 59.488 0c-7.407 0-13.412 6.005-13.412 13.412h3.5zm5.831 0a4.082 4.082 0 118.164 0h3.499a7.58 7.58 0 00-15.161 0h3.498z" fill="url(#paint0_linear_217_580)"/><path d="M16.513 23.487a6.148 6.148 0 00-.8-1.681 5.175 5.175 0 00-1.206-1.287 4.863 4.863 0 00-1.6-.8 6.677 6.677 0 00-1.972-.279c-1.275 0-2.412.321-3.41.963-.996.641-1.781 1.584-2.353 2.83-.564 1.236-.847 2.744-.847 4.522 0 1.793.283 3.312.847 4.557.564 1.245 1.349 2.192 2.354 2.84 1.005.642 2.172.963 3.502.963 1.206 0 2.25-.232 3.13-.695a4.904 4.904 0 002.053-1.972c.459-.82.698-1.775.718-2.864h-5.472v-3.363h9.636v2.853c0 2.033-.433 3.792-1.298 5.276a8.873 8.873 0 01-3.572 3.432c-1.515.797-3.255 1.195-5.218 1.195-2.188 0-4.11-.491-5.764-1.473-1.646-.99-2.933-2.392-3.861-4.21C.46 32.47 0 30.307 0 27.802c0-1.917.27-3.63.812-5.137.549-1.508 1.314-2.787 2.296-3.838a9.77 9.77 0 013.455-2.413c1.322-.556 2.76-.834 4.314-.834 1.314 0 2.54.193 3.676.58a9.741 9.741 0 013.027 1.623 9.047 9.047 0 012.191 2.505 8.827 8.827 0 011.125 3.2h-4.383z" fill="#fff"/><path fill-rule="evenodd" clip-rule="evenodd" d="M32.953 40c-1.786 0-3.328-.371-4.627-1.113-1.29-.75-2.284-1.81-2.98-3.178-.695-1.376-1.043-2.995-1.043-4.858 0-1.832.348-3.44 1.043-4.824.704-1.392 1.686-2.474 2.946-3.247 1.26-.781 2.74-1.171 4.441-1.171 1.098 0 2.134.177 3.108.533a7.04 7.04 0 012.597 1.623c.758.735 1.353 1.67 1.786 2.807.433 1.128.65 2.474.65 4.035v1.287H28.465c.013.992.202 1.846.568 2.563a4.054 4.054 0 001.588 1.693c.68.387 1.477.58 2.39.58.61 0 1.163-.085 1.658-.255a3.68 3.68 0 001.287-.777c.363-.34.637-.762.823-1.264l3.92.44a6.11 6.11 0 01-1.415 2.714c-.688.765-1.57 1.36-2.644 1.786-1.075.417-2.304.626-3.688.626zm-3.942-12.872a4.62 4.62 0 00-.537 1.937h8.376c-.008-.804-.182-1.52-.522-2.145a3.795 3.795 0 00-1.427-1.496c-.603-.364-1.306-.545-2.11-.545-.858 0-1.612.208-2.261.626-.65.41-1.156.95-1.52 1.623z" fill="#fff"/><path d="M53.319 25.087V21.84h-3.514v-4.267h-4.197v4.267H43.08v3.247h2.528v9.903c-.008 1.114.232 2.041.719 2.784a4.419 4.419 0 002.006 1.646c.842.348 1.79.507 2.84.476a7.883 7.883 0 001.508-.163c.418-.092.739-.177.963-.255l-.708-3.282a6.2 6.2 0 01-.51.105 4.098 4.098 0 01-.719.058c-.348 0-.665-.054-.95-.163a1.377 1.377 0 01-.697-.602c-.17-.302-.255-.735-.255-1.3v-9.207h3.514zm8.381-9.184v23.75h-4.302v-23.75H61.7zm4.473 23.749h4.198V29.216c0-.858.159-1.589.476-2.192a3.376 3.376 0 011.333-1.38c.572-.325 1.225-.487 1.96-.487 1.082 0 1.929.336 2.54 1.009.618.672.927 1.604.927 2.795v10.691h4.198v-11.34c.008-1.423-.244-2.633-.754-3.63-.502-.998-1.213-1.76-2.133-2.285-.913-.525-1.983-.788-3.213-.788-1.33 0-2.446.293-3.35.88a5.09 5.09 0 00-1.96 2.378h-.21V21.84h-4.012v17.812zM94.967 21.84v3.247h-3.514v9.208c0 .564.085.997.255 1.298.178.294.41.495.696.603.286.109.603.163.95.163a4.1 4.1 0 00.72-.058 6.33 6.33 0 00.51-.105l.707 3.282a9.378 9.378 0 01-.962.255c-.41.093-.912.147-1.508.163-1.051.03-1.998-.128-2.84-.476a4.42 4.42 0 01-2.007-1.646c-.487-.742-.727-1.67-.719-2.784v-9.903h-2.528V21.84h2.528v-4.267h4.198v4.267h3.514z" fill="#fff"/><path fill-rule="evenodd" clip-rule="evenodd" d="M101.544 38.887c1.299.742 2.842 1.113 4.627 1.113 1.384 0 2.613-.209 3.688-.626 1.074-.425 1.956-1.02 2.644-1.786a6.115 6.115 0 001.415-2.713l-3.92-.441c-.185.502-.46.924-.823 1.264-.364.34-.793.599-1.287.777a5.085 5.085 0 01-1.659.255c-.912 0-1.708-.193-2.388-.58a4.052 4.052 0 01-1.589-1.693c-.366-.717-.555-1.571-.568-2.563h12.408v-1.287c0-1.561-.217-2.907-.65-4.035-.433-1.137-1.028-2.072-1.786-2.806a7.022 7.022 0 00-2.597-1.624 8.991 8.991 0 00-3.108-.533c-1.701 0-3.181.39-4.441 1.17-1.26.774-2.242 1.856-2.946 3.248-.695 1.383-1.043 2.991-1.043 4.824 0 1.863.347 3.482 1.043 4.858.696 1.369 1.689 2.428 2.98 3.178zm.148-9.822a4.62 4.62 0 01.537-1.937 4.307 4.307 0 011.519-1.623c.649-.418 1.403-.626 2.261-.626.804 0 1.507.181 2.11.545a3.793 3.793 0 011.427 1.496c.34.626.514 1.34.522 2.145h-8.376z" fill="#fff"/><path d="M117.643 39.652V21.84h4.07v2.97h.186c.324-1.03.881-1.822 1.669-2.378.797-.564 1.705-.847 2.726-.847.231 0 .49.012.776.035.294.016.538.043.731.081v3.862c-.178-.062-.46-.116-.846-.162a7.794 7.794 0 00-1.102-.082c-.765 0-1.453.167-2.064.499a3.651 3.651 0 00-1.427 1.357c-.347.58-.521 1.248-.521 2.006v10.471h-4.198zm12.947 0h4.198V29.216c0-.858.158-1.589.475-2.192a3.375 3.375 0 011.334-1.38c.572-.325 1.225-.487 1.959-.487 1.083 0 1.929.336 2.54 1.009.618.672.928 1.604.928 2.795v10.691h4.198v-11.34c.007-1.423-.244-2.633-.754-3.63-.503-.998-1.214-1.76-2.134-2.285-.912-.525-1.983-.788-3.212-.788-1.33 0-2.447.293-3.351.88a5.092 5.092 0 00-1.96 2.378h-.209V21.84h-4.012v17.812z" fill="#fff"/><path fill-rule="evenodd" clip-rule="evenodd" d="M158.374 40c-1.786 0-3.328-.371-4.627-1.113-1.291-.75-2.284-1.81-2.98-3.178-.696-1.376-1.043-2.995-1.043-4.858 0-1.832.347-3.44 1.043-4.824.704-1.392 1.685-2.474 2.946-3.247 1.26-.781 2.74-1.171 4.441-1.171 1.098 0 2.134.177 3.108.533a7.04 7.04 0 012.597 1.623c.758.735 1.353 1.67 1.786 2.807.433 1.128.649 2.474.649 4.035v1.287h-12.407c.013.992.202 1.846.568 2.563a4.056 4.056 0 001.588 1.693c.681.387 1.477.58 2.389.58.611 0 1.164-.085 1.658-.255a3.688 3.688 0 001.288-.777c.363-.34.637-.762.823-1.264l3.919.44a6.103 6.103 0 01-1.414 2.714c-.688.765-1.57 1.36-2.644 1.786-1.075.417-2.304.626-3.688.626zm-3.942-12.872a4.605 4.605 0 00-.537 1.937h8.376c-.008-.804-.182-1.52-.522-2.145a3.793 3.793 0 00-1.427-1.496c-.603-.364-1.306-.545-2.11-.545-.858 0-1.612.208-2.261.626-.65.41-1.156.95-1.519 1.623z" fill="#fff"/><path d="M178.74 25.087V21.84h-3.514v-4.267h-4.197v4.267h-2.528v3.247h2.528v9.903c-.008 1.114.231 2.041.719 2.784a4.413 4.413 0 002.006 1.646c.842.348 1.789.507 2.841.476a7.88 7.88 0 001.507-.163 9.04 9.04 0 00.963-.255l-.708-3.282a6.206 6.206 0 01-.51.105 4.095 4.095 0 01-.719.058c-.348 0-.665-.054-.951-.163a1.378 1.378 0 01-.696-.602c-.17-.302-.255-.735-.255-1.3v-9.207h3.514z" fill="#fff"/><defs><linearGradient id="paint0_linear_217_580" x1="72.89" y1="0" x2="46.066" y2="13.412" gradientUnits="userSpaceOnUse"><stop stop-color="#fff"/><stop offset="1" stop-color="#fff" stop-opacity="0"/></linearGradient></defs></svg>