<svg width="64" height="64" fill="none" xmlns="http://www.w3.org/2000/svg"><rect width="64" height="64" rx="2" fill="#4760FF"/><path d="M49.387 42.659a17.999 17.999 0 10-34.774 0" stroke="#fff" stroke-width="2" stroke-linecap="round"/><path d="M33.531 39.165c.975 1.418.29 3.583-1.531 4.834-1.82 1.251-4.087 1.115-5.062-.304-1.194-1.737-5.751-12.702-7.67-17.373-.204-.496.404-.914.794-.546 3.673 3.466 12.276 11.651 13.47 13.389z" fill="#fff" stroke="#fff" stroke-width="2"/><path d="M32 20v4m-12.728 1.271L22.1 28.1m22.628-2.829L41.9 28.1m7.487 14.558l-3.864-1.035m-30.91 1.035l3.864-1.035" stroke="#fff" stroke-width="2" stroke-linecap="round"/></svg>