<?xml version="1.0" encoding="utf-8"?><svg viewBox="0 0 40 40" xmlns="http://www.w3.org/2000/svg" xmlns:xlink="http://www.w3.org/1999/xlink"><style>:root>svg{display:none}:root>svg:target{display:block}</style><svg fill="none" viewBox="0 0 24 24" id="arrow_down" xmlns="http://www.w3.org/2000/svg"><path d="M12 15l.707.707-.707.707-.707-.707L12 15zm6.707-5.293l-6 6-1.414-1.414 6-6 1.414 1.414zm-7.414 6l-6-6 1.414-1.414 6 6-1.414 1.414z" fill="#4E4E55"/></svg><svg fill="none" viewBox="0 0 20 20" id="arrow_top" xmlns="http://www.w3.org/2000/svg"><path d="M10 3.333l-.53-.53.53-.53.53.53-.53.53zm.75 12.5a.75.75 0 01-1.5 0h1.5zm-6.28-8.03l5-5 1.06 1.06-5 5-1.06-1.06zm6.06-5l5 5-1.06 1.06-5-5 1.06-1.06zm.22.53v12.5h-1.5v-12.5h1.5z" fill="#fff"/></svg><svg fill="none" viewBox="0 0 40 40" id="disc" xmlns="http://www.w3.org/2000/svg"><path d="M9.994 10.565c.306-.51.46-.765.67-.95a1.8 1.8 0 01.64-.363c.268-.085.565-.085 1.16-.085h15.072c.595 0 .892 0 1.16.085.236.076.454.2.64.363.21.185.364.44.67.95l3.75 6.251c.153.255.23.382.283.518.048.12.083.246.104.374.024.144.024.293.024.59v9.655c0 1.009 0 1.513-.197 1.898a1.799 1.799 0 01-.786.786c-.385.196-.89.196-1.897.196H8.713c-1.008 0-1.512 0-1.897-.196a1.8 1.8 0 01-.786-.786c-.197-.385-.197-.89-.197-1.898v-9.655c0-.297 0-.446.024-.59.02-.128.056-.253.104-.374.054-.136.13-.263.283-.518l3.75-6.251z" stroke="#4760FF" stroke-width="2.5"/><path d="M34.167 20.834h-5.225c-.696 0-1.044 0-1.306.188-.262.189-.372.519-.592 1.179l-.755 2.265c-.22.66-.33.99-.592 1.179-.262.189-.61.189-1.305.189h-8.784c-.696 0-1.043 0-1.305-.19-.262-.188-.372-.518-.592-1.178l-.755-2.265c-.22-.66-.33-.99-.592-1.179-.262-.188-.61-.188-1.306-.188H5.834" stroke="#4760FF" stroke-width="2.5"/></svg><svg fill="none" viewBox="0 0 40 40" id="globus" xmlns="http://www.w3.org/2000/svg"><path d="M32.5 10l-2.8 2.1a2 2 0 01-1.2.4h-6.43a2 2 0 00-1.79 1.106l-.398.797a2 2 0 00.522 2.443l5.405 4.422a6 6 0 012.164 5.307l-.353 3.179a8.003 8.003 0 01-.523 2.088L25.833 35M4.167 17.5l7.238-1.206a2 2 0 012.301 2.301l-.72 4.324a4 4 0 002.156 4.235l1.872.936a3 3 0 011.57 3.411L17.5 35.833" stroke="#4760FF" stroke-width="2.5"/><circle cx="20" cy="20" r="15.417" stroke="#4760FF" stroke-width="2.5"/></svg><svg fill="none" viewBox="0 0 28 29" id="limit" xmlns="http://www.w3.org/2000/svg"><path d="M6.693 7.193A10.333 10.333 0 1014 4.167M14 14.5l-7-7M14 4v2.333M24.5 14.5h-2.333M14 22.667V25M5.833 14.5H3.5" stroke="#4760FF" stroke-width="2" stroke-linecap="round"/></svg><svg fill="none" viewBox="0 0 40 40" id="mail" xmlns="http://www.w3.org/2000/svg"><rect x="6.667" y="10" width="26.667" height="20" rx="2" stroke="#4760FF" stroke-width="2.5"/><path d="M6.667 15l12.439 6.22a2 2 0 001.788 0L33.334 15" stroke="#4760FF" stroke-width="2.5"/></svg><svg fill="none" viewBox="0 0 24 24" id="mail2" xmlns="http://www.w3.org/2000/svg"><rect x="4" y="6" width="16" height="12" rx="2" stroke="#4760FF" stroke-width="2"/><path d="M4 9l7.106 3.553a2 2 0 001.788 0L20 9" stroke="#4760FF" stroke-width="2"/></svg><svg fill="none" viewBox="0 0 24 24" id="mobile" xmlns="http://www.w3.org/2000/svg"><path d="M6.879 2.879c-.51.51-.709 1.138-.797 1.793C6 5.284 6 6.048 6 6.934V17.066c0 .886 0 1.65.082 2.262.088.655.287 1.284.797 1.793.51.51 1.138.709 1.793.797.612.082 1.376.082 2.262.082H13.066c.886 0 1.65 0 2.262-.082.655-.088 1.284-.287 1.793-.797.51-.51.709-1.138.797-1.793.082-.612.082-1.376.082-2.262V6.934c0-.886 0-1.65-.082-2.262-.088-.655-.287-1.284-.797-1.793-.51-.51-1.138-.709-1.793-.797C14.716 2 13.952 2 13.066 2H10.934c-.886 0-1.65 0-2.262.082-.655.088-1.284.287-1.793.797zM7 16h10" stroke="#4760FF" stroke-width="2"/></svg><svg fill="none" viewBox="0 0 24 24" id="send" xmlns="http://www.w3.org/2000/svg"><path fill-rule="evenodd" clip-rule="evenodd" d="M18.298 5.683c-.38.068-.916.244-1.777.53l-6.49 2.164c-.828.276-1.412.471-1.832.635a4.55 4.55 0 00-.453.199c-.085.045-.115.07-.117.07a1 1 0 000 1.437c.002.002.032.026.117.071.101.053.246.118.453.2.42.163 1.004.358 1.831.634l.057.019c.273.09.513.17.734.287a3 3 0 011.25 1.25c.117.22.196.46.287.734l.02.056c.275.828.47 1.412.634 1.832.08.207.146.352.198.452.045.086.07.116.071.118a1 1 0 001.437 0c.002-.002.026-.032.071-.118.053-.1.118-.245.2-.453.163-.42.358-1.003.634-1.83l2.163-6.492c.287-.86.463-1.397.53-1.776a.814.814 0 00.005-.023 3.46 3.46 0 00-.023.004zm.259-.023l-.01-.001.01.001zm-.216-.208l-.001-.009.001.01zm-.394-1.738c.551-.098 1.306-.127 1.886.453.58.58.55 1.334.453 1.885-.097.542-.323 1.221-.578 1.987l-.024.072-2.164 6.49-.01.03c-.264.792-.474 1.424-.659 1.896-.173.445-.378.905-.688 1.227a3 3 0 01-4.326 0c-.31-.322-.515-.782-.688-1.227-.185-.472-.395-1.104-.66-1.897l-.01-.028c-.12-.361-.147-.433-.176-.488a1 1 0 00-.417-.417c-.056-.03-.127-.056-.488-.177l-.028-.01c-.793-.264-1.425-.474-1.898-.659-.444-.173-.904-.378-1.226-.688a3 3 0 010-4.326c.322-.31.782-.515 1.226-.688a44.668 44.668 0 011.898-.66l.028-.01 6.491-2.163.072-.024c.766-.255 1.445-.482 1.986-.578z" fill="#4760FF"/></svg></svg>