<svg width="40" height="40" viewBox="0 0 40 40" fill="none" xmlns="http://www.w3.org/2000/svg">
<path d="M9.99442 10.565C10.3004 10.0551 10.4533 9.80018 10.6639 9.615C10.8503 9.45112 11.0685 9.32756 11.3049 9.25206C11.5721 9.16675 11.8694 9.16675 12.464 9.16675H27.5361C28.1307 9.16675 28.428 9.16675 28.6952 9.25206C28.9316 9.32756 29.1498 9.45112 29.3362 9.615C29.5468 9.80018 29.6997 10.0551 30.0057 10.565L33.7563 16.816C33.9091 17.0707 33.9854 17.198 34.0394 17.3338C34.0874 17.4545 34.1221 17.58 34.1431 17.7081C34.1667 17.8524 34.1667 18.0009 34.1667 18.2978V27.9534C34.1667 28.9615 34.1667 29.4656 33.9705 29.8506C33.798 30.1893 33.5226 30.4647 33.1839 30.6372C32.7989 30.8334 32.2948 30.8334 31.2867 30.8334H8.71337C7.70528 30.8334 7.20123 30.8334 6.81619 30.6372C6.4775 30.4647 6.20213 30.1893 6.02956 29.8506C5.83337 29.4656 5.83337 28.9615 5.83337 27.9534V18.2978C5.83337 18.0009 5.83337 17.8524 5.85698 17.7081C5.87793 17.58 5.91269 17.4545 5.96064 17.3338C6.01465 17.198 6.09103 17.0707 6.24379 16.816L9.99442 10.565Z" stroke="#4760FF" stroke-width="2.5"/>
<path d="M34.1667 20.8335H28.9416C28.2458 20.8335 27.898 20.8335 27.6361 21.0223C27.3742 21.211 27.2642 21.541 27.0442 22.201L26.2892 24.466C26.0692 25.126 25.9592 25.456 25.6973 25.6447C25.4354 25.8335 25.0876 25.8335 24.3919 25.8335H15.6082C14.9125 25.8335 14.5646 25.8335 14.3028 25.6447C14.0409 25.456 13.9309 25.126 13.7109 24.466L12.9559 22.201C12.7359 21.541 12.6259 21.211 12.364 21.0223C12.1021 20.8335 11.7542 20.8335 11.0585 20.8335H5.83337" stroke="#4760FF" stroke-width="2.5"/>
</svg>
