<svg width="40" height="40" viewBox="0 0 40 40" fill="none" xmlns="http://www.w3.org/2000/svg">
<path d="M32.5001 10L29.7001 12.1C29.3539 12.3596 28.9328 12.5 28.5001 12.5H22.0695C21.3119 12.5 20.6194 12.928 20.2806 13.6056L19.8817 14.4034C19.4637 15.2395 19.6806 16.2537 20.4041 16.8457L25.8094 21.2682C27.3833 22.556 28.1979 24.5534 27.9733 26.5746L27.62 29.754C27.5404 30.4703 27.3644 31.1725 27.0968 31.8417L25.8334 35" stroke="#4760FF" stroke-width="2.5"/>
<path d="M4.16675 17.4999L11.4048 16.2936C12.7585 16.068 13.932 17.2415 13.7064 18.5952L12.9858 22.9191C12.6971 24.6513 13.5719 26.3691 15.1425 27.1545L17.0143 28.0904C18.2719 28.7192 18.9241 30.1371 18.5831 31.5012L17.5001 35.8333" stroke="#4760FF" stroke-width="2.5"/>
<circle cx="20" cy="19.9999" r="15.4167" stroke="#4760FF" stroke-width="2.5"/>
</svg>
