<svg width="28" height="29" viewBox="0 0 28 29" fill="none" xmlns="http://www.w3.org/2000/svg">
<path d="M6.69319 7.19319C5.00273 8.88365 3.95071 11.108 3.71638 13.4871C3.48206 15.8663 4.07992 18.2531 5.4081 20.2408C6.73629 22.2286 8.71262 23.6944 11.0003 24.3883C13.2881 25.0823 15.7457 24.9616 17.9544 24.0467C20.163 23.1318 21.9862 21.4794 23.1131 19.3711C24.2401 17.2627 24.6011 14.8288 24.1347 12.484C23.6683 10.1393 22.4034 8.02881 20.5554 6.51218C18.7073 4.99556 16.3906 4.16663 14 4.16663" stroke="#4760FF" stroke-width="2" stroke-linecap="round"/>
<path d="M14 14.5L7 7.5" stroke="#4760FF" stroke-width="2" stroke-linecap="round"/>
<path d="M14 4V6.33333" stroke="#4760FF" stroke-width="2" stroke-linecap="round"/>
<path d="M24.5 14.5L22.1667 14.5" stroke="#4760FF" stroke-width="2" stroke-linecap="round"/>
<path d="M14 22.6666V25" stroke="#4760FF" stroke-width="2" stroke-linecap="round"/>
<path d="M5.83337 14.5L3.50004 14.5" stroke="#4760FF" stroke-width="2" stroke-linecap="round"/>
</svg>
