<svg width="64" height="64" viewBox="0 0 64 64" fill="none" xmlns="http://www.w3.org/2000/svg">
<rect width="64" height="64" rx="2" fill="#4760FF"/>
<rect x="34" y="36" width="4" height="4" rx="1" fill="white"/>
<rect x="22" y="30" width="4" height="12" rx="1" fill="white"/>
<rect x="30" y="34" width="4" height="12" rx="1" transform="rotate(90 30 34)" fill="white"/>
<rect x="40" y="32" width="4" height="4" rx="1" fill="white"/>
<path d="M36 24V23.1231C36 21.6232 36 20.8733 35.5764 20.3307C35.1528 19.7882 34.4253 19.6063 32.9701 19.2425L31.0299 18.7575C29.5747 18.3937 28.8472 18.2118 28.4236 17.6693C28 17.1267 28 16.3768 28 14.8769V12" stroke="white" stroke-width="2" stroke-linecap="round"/>
<path d="M14 36C14 30.8824 14 28.3236 15.2399 26.5608C15.5591 26.107 15.9314 25.7008 16.3474 25.3526C17.9633 24 20.3088 24 25 24H39C43.6912 24 46.0367 24 47.6526 25.3526C48.0686 25.7008 48.4409 26.107 48.7601 26.5608C50 28.3236 50 30.8824 50 36C50 41.1176 50 43.6764 48.7601 45.4392C48.4409 45.893 48.0686 46.2992 47.6526 46.6474C46.0367 48 43.6912 48 39 48H25C20.3088 48 17.9633 48 16.3474 46.6474C15.9314 46.2992 15.5591 45.893 15.2399 45.4392C14 43.6764 14 41.1176 14 36Z" stroke="white" stroke-width="2"/>
</svg>
