<svg width="64" height="64" viewBox="0 0 64 64" fill="none" xmlns="http://www.w3.org/2000/svg">
<rect width="64" height="64" rx="2" fill="#4760FF"/>
<path d="M18 33.5192C18 30.8037 18 29.4459 18.5489 28.2525C19.0978 27.059 20.1287 26.1754 22.1905 24.4081L24.1905 22.6939C27.9171 19.4996 29.7805 17.9025 32 17.9025C34.2195 17.9025 36.0829 19.4996 39.8095 22.6939L41.8095 24.4081C43.8713 26.1754 44.9022 27.059 45.4511 28.2525C46 29.4459 46 30.8037 46 33.5192V42C46 45.7712 46 47.6569 44.8284 48.8284C43.6569 50 41.7712 50 38 50H26C22.2288 50 20.3431 50 19.1716 48.8284C18 47.6569 18 45.7712 18 42V33.5192Z" stroke="white" stroke-width="2"/>
<path d="M28 39H36V49L28 49V39Z" fill="white" stroke="white" stroke-width="2" stroke-linecap="round" stroke-linejoin="round"/>
</svg>
