<svg width="180" height="40" viewBox="0 0 180 40" fill="none" xmlns="http://www.w3.org/2000/svg">
<path fill-rule="evenodd" clip-rule="evenodd" d="M49.5752 13.4118C49.5752 7.93694 54.0134 3.49872 59.4882 3.49872C64.963 3.49872 69.4013 7.93694 69.4013 13.4118H72.9C72.9 6.00465 66.8953 0 59.4882 0C52.0811 0 46.0764 6.00465 46.0764 13.4118H49.5752ZM55.4064 13.4117C55.4064 11.1574 57.2339 9.32991 59.4882 9.32991C61.7425 9.32991 63.5701 11.1574 63.5701 13.4117H67.0688C67.0688 9.22512 63.6748 5.83119 59.4882 5.83119C55.3016 5.83119 51.9076 9.22512 51.9076 13.4117H55.4064Z" fill="url(#paint0_linear_215_432)"/>
<path d="M16.5129 23.4871C16.3196 22.8609 16.0529 22.3004 15.7128 21.8056C15.3803 21.3031 14.9783 20.8741 14.5068 20.5185C14.0429 20.1629 13.5095 19.8961 12.9065 19.7183C12.3035 19.5328 11.6464 19.44 10.9352 19.44C9.65958 19.44 8.52316 19.7609 7.5259 20.4025C6.52863 21.0442 5.74395 21.9873 5.17188 23.232C4.60753 24.4689 4.32536 25.9764 4.32536 27.7545C4.32536 29.548 4.60753 31.0671 5.17188 32.3117C5.73622 33.5564 6.5209 34.5034 7.5259 35.1528C8.53089 35.7945 9.69824 36.1153 11.0279 36.1153C12.2339 36.1153 13.2776 35.8834 14.1589 35.4195C15.0479 34.9557 15.7321 34.2986 16.2114 33.4482C16.6697 32.6277 16.9089 31.673 16.929 30.5839H11.457V27.221H21.0934V30.0737C21.0934 32.1069 20.6605 33.8656 19.7946 35.3499C18.9288 36.8342 17.7382 37.9784 16.223 38.7824C14.7078 39.5787 12.9683 39.9768 11.0047 39.9768C8.81693 39.9768 6.89584 39.4859 5.24146 38.5041C3.5948 37.5146 2.30763 36.1114 1.37994 34.2947C0.45998 32.4702 0 30.3056 0 27.8009C0 25.8836 0.270577 24.1713 0.81173 22.6638C1.36061 21.1563 2.12596 19.8768 3.10777 18.8254C4.08957 17.7663 5.24145 16.9623 6.56341 16.4134C7.88537 15.8568 9.3233 15.5785 10.8772 15.5785C12.1914 15.5785 13.4167 15.7718 14.5532 16.1583C15.6896 16.5371 16.6984 17.0783 17.5797 17.7818C18.4688 18.4853 19.1993 19.3202 19.7714 20.2866C20.3435 21.2529 20.7184 22.3197 20.8962 23.4871H16.5129Z" fill="#4E4E55"/>
<path fill-rule="evenodd" clip-rule="evenodd" d="M32.9533 40C31.1675 40 29.6252 39.6289 28.3265 38.8868C27.0354 38.1369 26.042 37.0778 25.3463 35.7094C24.6505 34.3333 24.3026 32.7137 24.3026 30.8506C24.3026 29.0184 24.6505 27.4104 25.3463 26.0266C26.0498 24.6351 27.0316 23.5528 28.2917 22.7797C29.5518 21.9989 31.0322 21.6085 32.733 21.6085C33.8308 21.6085 34.8667 21.7863 35.8408 22.1419C36.8226 22.4898 37.6884 23.031 38.4383 23.7654C39.1959 24.4998 39.7912 25.4352 40.2241 26.5717C40.657 27.7004 40.8735 29.0455 40.8735 30.6071V31.8943H28.4663C28.4786 32.8857 28.6678 33.7399 29.0338 34.457C29.4126 35.1915 29.9422 35.7558 30.6225 36.1501C31.3028 36.5366 32.0991 36.7299 33.0113 36.7299C33.622 36.7299 34.1748 36.6448 34.6696 36.4748C35.1643 36.297 35.5934 36.038 35.9567 35.6978C36.3201 35.3577 36.5945 34.9363 36.7801 34.4338L40.6995 34.8745C40.4522 35.9104 39.9806 36.8149 39.2848 37.588C38.5968 38.3533 37.7155 38.9486 36.6409 39.3738C35.5663 39.7913 34.3371 40 32.9533 40ZM29.0106 27.1283C28.6933 27.7215 28.5145 28.367 28.4742 29.0648H36.8496C36.8419 28.2608 36.668 27.5457 36.3278 26.9195C35.9876 26.2856 35.5122 25.787 34.9015 25.4236C34.2985 25.0603 33.595 24.8786 32.791 24.8786C31.9329 24.8786 31.1791 25.0874 30.5297 25.5048C29.8804 25.9145 29.374 26.4557 29.0106 27.1283Z" fill="#4E4E55"/>
<path d="M53.319 25.0874V21.8404H49.8054V17.5731H45.6076V21.8404H43.0797V25.0874H45.6076V34.9905C45.5999 36.1037 45.8395 37.0314 46.3266 37.7735C46.8213 38.5157 47.4901 39.0646 48.3327 39.4202C49.1754 39.7681 50.1224 39.9265 51.1738 39.8956C51.769 39.8802 52.2715 39.826 52.6813 39.7333C53.0987 39.6405 53.4195 39.5555 53.6437 39.4782L52.9364 36.1965C52.8204 36.2274 52.6503 36.2622 52.4261 36.3008C52.2097 36.3395 51.97 36.3588 51.7072 36.3588C51.3593 36.3588 51.0423 36.3047 50.7563 36.1965C50.4703 36.0882 50.2383 35.8872 50.0605 35.5935C49.8905 35.292 49.8054 34.859 49.8054 34.2947V25.0874H53.319Z" fill="#4E4E55"/>
<path d="M61.7002 15.9032V39.6521H57.398V15.9032H61.7002Z" fill="#4760FF"/>
<path d="M66.1734 39.6521H70.3712V29.2156C70.3712 28.3575 70.5296 27.6269 70.8466 27.0239C71.1713 26.4209 71.6158 25.9609 72.1802 25.644C72.7522 25.3193 73.4055 25.1569 74.1399 25.1569C75.2222 25.1569 76.0687 25.4932 76.6795 26.1658C77.2979 26.8384 77.6072 27.7699 77.6072 28.9605V39.6521H81.805V28.3111C81.8127 26.8886 81.5614 25.6788 81.0512 24.6815C80.5487 23.6842 79.8375 22.9227 78.9175 22.3971C78.0053 21.8714 76.9346 21.6085 75.7054 21.6085C74.3757 21.6085 73.2586 21.9023 72.3541 22.4898C71.4573 23.0774 70.8041 23.8698 70.3944 24.867H70.1856V21.8404H66.1734V39.6521Z" fill="#4760FF"/>
<path d="M94.9666 21.8404V25.0874H91.4529V34.2947C91.4529 34.859 91.538 35.292 91.7081 35.5935C91.8859 35.8872 92.1178 36.0882 92.4038 36.1965C92.6899 36.3047 93.0068 36.3588 93.3547 36.3588C93.6176 36.3588 93.8572 36.3395 94.0737 36.3008C94.2979 36.2622 94.4679 36.2274 94.5839 36.1965L95.2913 39.4782C95.0671 39.5555 94.7463 39.6405 94.3288 39.7333C93.9191 39.826 93.4165 39.8802 92.8213 39.8956C91.7699 39.9265 90.8229 39.7681 89.9802 39.4202C89.1376 39.0646 88.4689 38.5157 87.9741 37.7735C87.4871 37.0314 87.2474 36.1037 87.2551 34.9905V25.0874H84.7272V21.8404H87.2551V17.5731H91.4529V21.8404H94.9666Z" fill="#4760FF"/>
<path fill-rule="evenodd" clip-rule="evenodd" d="M101.544 38.8868C102.843 39.6289 104.386 40 106.171 40C107.555 40 108.784 39.7913 109.859 39.3738C110.933 38.9486 111.815 38.3533 112.503 37.588C113.199 36.8149 113.67 35.9104 113.918 34.8745L109.998 34.4338C109.813 34.9363 109.538 35.3577 109.175 35.6978C108.811 36.038 108.382 36.297 107.888 36.4748C107.393 36.6448 106.84 36.7299 106.229 36.7299C105.317 36.7299 104.521 36.5366 103.841 36.1501C103.16 35.7558 102.631 35.1915 102.252 34.457C101.886 33.7399 101.697 32.8857 101.684 31.8943H114.092V30.6071C114.092 29.0455 113.875 27.7004 113.442 26.5717C113.009 25.4352 112.414 24.4998 111.656 23.7654C110.906 23.031 110.041 22.4898 109.059 22.1419C108.085 21.7863 107.049 21.6085 105.951 21.6085C104.25 21.6085 102.77 21.9989 101.51 22.7797C100.25 23.5528 99.2678 24.6351 98.5643 26.0266C97.8685 27.4104 97.5206 29.0184 97.5206 30.8506C97.5206 32.7137 97.8685 34.3333 98.5643 35.7094C99.26 37.0778 100.253 38.1369 101.544 38.8868ZM101.692 29.0648C101.733 28.367 101.911 27.7215 102.229 27.1283C102.592 26.4557 103.098 25.9145 103.748 25.5048C104.397 25.0874 105.151 24.8786 106.009 24.8786C106.813 24.8786 107.516 25.0603 108.119 25.4236C108.73 25.787 109.206 26.2856 109.546 26.9195C109.886 27.5457 110.06 28.2608 110.068 29.0648H101.692Z" fill="#4760FF"/>
<path d="M117.643 39.6521V21.8404H121.713V24.809H121.899C122.223 23.7809 122.78 22.9885 123.568 22.4318C124.365 21.8675 125.273 21.5853 126.294 21.5853C126.525 21.5853 126.784 21.5969 127.07 21.6201C127.364 21.6356 127.608 21.6626 127.801 21.7013V25.5628C127.623 25.501 127.341 25.4468 126.955 25.4005C126.576 25.3463 126.209 25.3193 125.853 25.3193C125.088 25.3193 124.4 25.4855 123.789 25.8179C123.186 26.1426 122.71 26.5949 122.362 27.1747C122.015 27.7545 121.841 28.4232 121.841 29.1808V39.6521H117.643Z" fill="#4760FF"/>
<path d="M130.59 39.6521H134.788V29.2156C134.788 28.3575 134.946 27.6269 135.263 27.0239C135.588 26.4209 136.032 25.9609 136.597 25.644C137.169 25.3193 137.822 25.1569 138.556 25.1569C139.639 25.1569 140.485 25.4932 141.096 26.1658C141.714 26.8384 142.024 27.7699 142.024 28.9605V39.6521H146.222V28.3111C146.229 26.8886 145.978 25.6788 145.468 24.6815C144.965 23.6842 144.254 22.9227 143.334 22.3971C142.422 21.8714 141.351 21.6085 140.122 21.6085C138.792 21.6085 137.675 21.9023 136.771 22.4898C135.874 23.0774 135.221 23.8698 134.811 24.867H134.602V21.8404H130.59V39.6521Z" fill="#4760FF"/>
<path fill-rule="evenodd" clip-rule="evenodd" d="M158.374 40C156.588 40 155.046 39.6289 153.747 38.8868C152.456 38.1369 151.463 37.0778 150.767 35.7094C150.071 34.3333 149.724 32.7137 149.724 30.8506C149.724 29.0184 150.071 27.4104 150.767 26.0266C151.471 24.6351 152.452 23.5528 153.713 22.7797C154.973 21.9989 156.453 21.6085 158.154 21.6085C159.252 21.6085 160.288 21.7863 161.262 22.1419C162.244 22.4898 163.109 23.031 163.859 23.7654C164.617 24.4998 165.212 25.4352 165.645 26.5717C166.078 27.7004 166.294 29.0455 166.294 30.6071V31.8943H153.887C153.9 32.8857 154.089 33.7399 154.455 34.457C154.834 35.1915 155.363 35.7558 156.043 36.1501C156.724 36.5366 157.52 36.7299 158.432 36.7299C159.043 36.7299 159.596 36.6448 160.09 36.4748C160.585 36.297 161.014 36.038 161.378 35.6978C161.741 35.3577 162.015 34.9363 162.201 34.4338L166.12 34.8745C165.873 35.9104 165.402 36.8149 164.706 37.588C164.018 38.3533 163.136 38.9486 162.062 39.3738C160.987 39.7913 159.758 40 158.374 40ZM154.432 27.1283C154.114 27.7215 153.935 28.367 153.895 29.0648H162.271C162.263 28.2608 162.089 27.5457 161.749 26.9195C161.409 26.2856 160.933 25.787 160.322 25.4236C159.719 25.0603 159.016 24.8786 158.212 24.8786C157.354 24.8786 156.6 25.0874 155.951 25.5048C155.301 25.9145 154.795 26.4557 154.432 27.1283Z" fill="#4760FF"/>
<path d="M178.74 25.0874V21.8404H175.226V17.5731H171.029V21.8404H168.501V25.0874H171.029V34.9905C171.021 36.1037 171.26 37.0314 171.748 37.7735C172.242 38.5157 172.911 39.0646 173.754 39.4202C174.596 39.7681 175.543 39.9265 176.595 39.8956C177.19 39.8802 177.692 39.826 178.102 39.7333C178.52 39.6405 178.84 39.5555 179.065 39.4782L178.357 36.1965C178.241 36.2274 178.071 36.2622 177.847 36.3008C177.631 36.3395 177.391 36.3588 177.128 36.3588C176.78 36.3588 176.463 36.3047 176.177 36.1965C175.891 36.0882 175.659 35.8872 175.481 35.5935C175.311 35.292 175.226 34.859 175.226 34.2947V25.0874H178.74Z" fill="#4760FF"/>
<defs>
<linearGradient id="paint0_linear_215_432" x1="72.89" y1="1.59881e-06" x2="46.0665" y2="13.4118" gradientUnits="userSpaceOnUse">
<stop stop-color="#4760FF"/>
<stop offset="1" stop-color="#4760FF" stop-opacity="0"/>
</linearGradient>
</defs>
</svg>
