<svg width="180" height="40" viewBox="0 0 180 40" fill="none" xmlns="http://www.w3.org/2000/svg">
<path fill-rule="evenodd" clip-rule="evenodd" d="M49.5752 13.4118C49.5752 7.93694 54.0134 3.49872 59.4882 3.49872C64.963 3.49872 69.4013 7.93694 69.4013 13.4118H72.9C72.9 6.00465 66.8953 0 59.4882 0C52.0811 0 46.0764 6.00465 46.0764 13.4118H49.5752ZM55.4064 13.4119C55.4064 11.1575 57.2339 9.33002 59.4882 9.33002C61.7426 9.33002 63.5701 11.1575 63.5701 13.4119H67.0688C67.0688 9.22523 63.6748 5.8313 59.4882 5.8313C55.3016 5.8313 51.9077 9.22523 51.9077 13.4119H55.4064Z" fill="url(#paint0_linear_217_580)"/>
<path d="M16.5129 23.4872C16.3196 22.861 16.0529 22.3005 15.7128 21.8057C15.3803 21.3032 14.9783 20.8742 14.5068 20.5186C14.0429 20.163 13.5095 19.8962 12.9065 19.7184C12.3035 19.5329 11.6464 19.4401 10.9352 19.4401C9.65958 19.4401 8.52316 19.761 7.5259 20.4026C6.52863 21.0443 5.74395 21.9874 5.17188 23.2321C4.60753 24.469 4.32536 25.9765 4.32536 27.7546C4.32536 29.5481 4.60753 31.0672 5.17188 32.3118C5.73622 33.5565 6.5209 34.5035 7.5259 35.1529C8.53089 35.7945 9.69824 36.1154 11.0279 36.1154C12.2339 36.1154 13.2776 35.8835 14.1589 35.4196C15.0479 34.9558 15.7321 34.2986 16.2114 33.4483C16.6697 32.6278 16.9089 31.673 16.929 30.584H11.457V27.2211H21.0934V30.0738C21.0934 32.107 20.6605 33.8657 19.7946 35.35C18.9288 36.8343 17.7382 37.9785 16.223 38.7825C14.7078 39.5788 12.9683 39.9769 11.0047 39.9769C8.81693 39.9769 6.89584 39.486 5.24146 38.5042C3.5948 37.5146 2.30763 36.1115 1.37994 34.2948C0.45998 32.4703 0 30.3057 0 27.8009C0 25.8837 0.270577 24.1714 0.81173 22.6639C1.36061 21.1564 2.12596 19.8769 3.10777 18.8255C4.08957 17.7664 5.24145 16.9624 6.56341 16.4135C7.88537 15.8569 9.3233 15.5786 10.8772 15.5786C12.1914 15.5786 13.4167 15.7719 14.5532 16.1584C15.6896 16.5372 16.6984 17.0784 17.5797 17.7819C18.4688 18.4854 19.1993 19.3203 19.7714 20.2866C20.3435 21.253 20.7184 22.3198 20.8962 23.4872H16.5129Z" fill="white"/>
<path fill-rule="evenodd" clip-rule="evenodd" d="M32.9533 40.0001C31.1675 40.0001 29.6252 39.629 28.3265 38.8869C27.0354 38.137 26.042 37.0779 25.3463 35.7095C24.6505 34.3334 24.3026 32.7138 24.3026 30.8507C24.3026 29.0185 24.6505 27.4105 25.3463 26.0267C26.0498 24.6352 27.0316 23.5529 28.2917 22.7798C29.5518 21.999 31.0322 21.6086 32.733 21.6086C33.8308 21.6086 34.8667 21.7864 35.8408 22.142C36.8226 22.4899 37.6884 23.0311 38.4383 23.7655C39.1959 24.4999 39.7912 25.4353 40.2241 26.5718C40.657 27.7004 40.8735 29.0456 40.8735 30.6072V31.8944H28.4663C28.4786 32.8858 28.6678 33.74 29.0338 34.4571C29.4126 35.1915 29.9422 35.7559 30.6225 36.1502C31.3028 36.5367 32.0991 36.73 33.0113 36.73C33.622 36.73 34.1748 36.6449 34.6696 36.4749C35.1643 36.297 35.5934 36.0381 35.9567 35.6979C36.3201 35.3578 36.5945 34.9364 36.7801 34.4339L40.6995 34.8746C40.4522 35.9105 39.9806 36.815 39.2848 37.5881C38.5968 38.3534 37.7155 38.9487 36.6409 39.3739C35.5663 39.7914 34.3371 40.0001 32.9533 40.0001ZM29.0106 27.1284C28.6933 27.7216 28.5145 28.3671 28.4742 29.0649H36.8496C36.8419 28.2609 36.668 27.5458 36.3278 26.9196C35.9876 26.2857 35.5122 25.7871 34.9015 25.4237C34.2985 25.0604 33.595 24.8787 32.791 24.8787C31.9329 24.8787 31.1791 25.0874 30.5297 25.5049C29.8804 25.9146 29.374 26.4558 29.0106 27.1284Z" fill="white"/>
<path d="M53.319 25.0874V21.8405H49.8054V17.5731H45.6076V21.8405H43.0797V25.0874H45.6076V34.9905C45.5999 36.1038 45.8395 37.0315 46.3266 37.7736C46.8213 38.5158 47.4901 39.0647 48.3327 39.4203C49.1754 39.7682 50.1224 39.9266 51.1738 39.8957C51.769 39.8803 52.2715 39.8261 52.6813 39.7334C53.0987 39.6406 53.4195 39.5556 53.6437 39.4783L52.9364 36.1965C52.8204 36.2275 52.6503 36.2623 52.4261 36.3009C52.2097 36.3396 51.97 36.3589 51.7072 36.3589C51.3593 36.3589 51.0423 36.3048 50.7563 36.1965C50.4703 36.0883 50.2383 35.8873 50.0605 35.5935C49.8905 35.292 49.8054 34.8591 49.8054 34.2948V25.0874H53.319Z" fill="white"/>
<path d="M61.7002 15.9033V39.6522H57.398V15.9033H61.7002Z" fill="white"/>
<path d="M66.1734 39.6522H70.3712V29.2157C70.3712 28.3576 70.5296 27.627 70.8466 27.024C71.1713 26.421 71.6158 25.961 72.1802 25.6441C72.7522 25.3194 73.4055 25.157 74.1399 25.157C75.2222 25.157 76.0687 25.4933 76.6795 26.1659C77.2979 26.8385 77.6072 27.77 77.6072 28.9606V39.6522H81.805V28.3112C81.8127 26.8887 81.5614 25.6789 81.0512 24.6816C80.5487 23.6843 79.8375 22.9228 78.9175 22.3971C78.0053 21.8715 76.9346 21.6086 75.7054 21.6086C74.3757 21.6086 73.2586 21.9024 72.3541 22.4899C71.4573 23.0774 70.8041 23.8699 70.3944 24.8671H70.1856V21.8405H66.1734V39.6522Z" fill="white"/>
<path d="M94.9666 21.8405V25.0874H91.4529V34.2948C91.4529 34.8591 91.538 35.292 91.7081 35.5935C91.8859 35.8873 92.1178 36.0883 92.4038 36.1965C92.6899 36.3048 93.0068 36.3589 93.3547 36.3589C93.6176 36.3589 93.8572 36.3396 94.0737 36.3009C94.2979 36.2623 94.4679 36.2275 94.5839 36.1965L95.2913 39.4783C95.0671 39.5556 94.7463 39.6406 94.3288 39.7334C93.9191 39.8261 93.4165 39.8803 92.8213 39.8957C91.7699 39.9266 90.8229 39.7682 89.9802 39.4203C89.1376 39.0647 88.4689 38.5158 87.9741 37.7736C87.4871 37.0315 87.2474 36.1038 87.2551 34.9905V25.0874H84.7272V21.8405H87.2551V17.5731H91.4529V21.8405H94.9666Z" fill="white"/>
<path fill-rule="evenodd" clip-rule="evenodd" d="M101.544 38.8869C102.843 39.629 104.386 40.0001 106.171 40.0001C107.555 40.0001 108.784 39.7914 109.859 39.3739C110.933 38.9487 111.815 38.3534 112.503 37.5881C113.199 36.815 113.67 35.9105 113.918 34.8746L109.998 34.4339C109.813 34.9364 109.538 35.3578 109.175 35.6979C108.811 36.0381 108.382 36.297 107.888 36.4749C107.393 36.6449 106.84 36.73 106.229 36.73C105.317 36.73 104.521 36.5367 103.841 36.1502C103.16 35.7559 102.631 35.1915 102.252 34.4571C101.886 33.74 101.697 32.8858 101.684 31.8944H114.092V30.6072C114.092 29.0456 113.875 27.7004 113.442 26.5718C113.009 25.4353 112.414 24.4999 111.656 23.7655C110.906 23.0311 110.041 22.4899 109.059 22.142C108.085 21.7864 107.049 21.6086 105.951 21.6086C104.25 21.6086 102.77 21.999 101.51 22.7798C100.25 23.5529 99.2678 24.6352 98.5643 26.0267C97.8685 27.4105 97.5206 29.0185 97.5206 30.8507C97.5206 32.7138 97.8685 34.3334 98.5643 35.7095C99.26 37.0779 100.253 38.137 101.544 38.8869ZM101.692 29.0649C101.733 28.3671 101.911 27.7216 102.229 27.1284C102.592 26.4558 103.098 25.9146 103.748 25.5049C104.397 25.0874 105.151 24.8787 106.009 24.8787C106.813 24.8787 107.516 25.0604 108.119 25.4237C108.73 25.7871 109.206 26.2857 109.546 26.9196C109.886 27.5458 110.06 28.2609 110.068 29.0649H101.692Z" fill="white"/>
<path d="M117.643 39.6522V21.8405H121.713V24.8091H121.899C122.223 23.7809 122.78 22.9885 123.568 22.4319C124.365 21.8676 125.273 21.5854 126.294 21.5854C126.525 21.5854 126.784 21.597 127.07 21.6202C127.364 21.6357 127.608 21.6627 127.801 21.7014V25.5629C127.623 25.501 127.341 25.4469 126.955 25.4005C126.576 25.3464 126.209 25.3194 125.853 25.3194C125.088 25.3194 124.4 25.4856 123.789 25.818C123.186 26.1427 122.71 26.5949 122.362 27.1748C122.015 27.7546 121.841 28.4233 121.841 29.1809V39.6522H117.643Z" fill="white"/>
<path d="M130.59 39.6522H134.788V29.2157C134.788 28.3576 134.946 27.627 135.263 27.024C135.588 26.421 136.032 25.961 136.597 25.6441C137.169 25.3194 137.822 25.157 138.556 25.157C139.639 25.157 140.485 25.4933 141.096 26.1659C141.714 26.8385 142.024 27.77 142.024 28.9606V39.6522H146.222V28.3112C146.229 26.8887 145.978 25.6789 145.468 24.6816C144.965 23.6843 144.254 22.9228 143.334 22.3971C142.422 21.8715 141.351 21.6086 140.122 21.6086C138.792 21.6086 137.675 21.9024 136.771 22.4899C135.874 23.0774 135.221 23.8699 134.811 24.8671H134.602V21.8405H130.59V39.6522Z" fill="white"/>
<path fill-rule="evenodd" clip-rule="evenodd" d="M158.374 40.0001C156.588 40.0001 155.046 39.629 153.747 38.8869C152.456 38.137 151.463 37.0779 150.767 35.7095C150.071 34.3334 149.724 32.7138 149.724 30.8507C149.724 29.0185 150.071 27.4105 150.767 26.0267C151.471 24.6352 152.452 23.5529 153.713 22.7798C154.973 21.999 156.453 21.6086 158.154 21.6086C159.252 21.6086 160.288 21.7864 161.262 22.142C162.244 22.4899 163.109 23.0311 163.859 23.7655C164.617 24.4999 165.212 25.4353 165.645 26.5718C166.078 27.7004 166.294 29.0456 166.294 30.6072V31.8944H153.887C153.9 32.8858 154.089 33.74 154.455 34.4571C154.834 35.1915 155.363 35.7559 156.043 36.1502C156.724 36.5367 157.52 36.73 158.432 36.73C159.043 36.73 159.596 36.6449 160.09 36.4749C160.585 36.297 161.014 36.0381 161.378 35.6979C161.741 35.3578 162.015 34.9364 162.201 34.4339L166.12 34.8746C165.873 35.9105 165.402 36.815 164.706 37.5881C164.018 38.3534 163.136 38.9487 162.062 39.3739C160.987 39.7914 159.758 40.0001 158.374 40.0001ZM154.432 27.1284C154.114 27.7216 153.935 28.3671 153.895 29.0649H162.271C162.263 28.2609 162.089 27.5458 161.749 26.9196C161.409 26.2857 160.933 25.7871 160.322 25.4237C159.719 25.0604 159.016 24.8787 158.212 24.8787C157.354 24.8787 156.6 25.0874 155.951 25.5049C155.301 25.9146 154.795 26.4558 154.432 27.1284Z" fill="white"/>
<path d="M178.74 25.0874V21.8405H175.226V17.5731H171.029V21.8405H168.501V25.0874H171.029V34.9905C171.021 36.1038 171.26 37.0315 171.748 37.7736C172.242 38.5158 172.911 39.0647 173.754 39.4203C174.596 39.7682 175.543 39.9266 176.595 39.8957C177.19 39.8803 177.692 39.8261 178.102 39.7334C178.52 39.6406 178.84 39.5556 179.065 39.4783L178.357 36.1965C178.241 36.2275 178.071 36.2623 177.847 36.3009C177.631 36.3396 177.391 36.3589 177.128 36.3589C176.78 36.3589 176.463 36.3048 176.177 36.1965C175.891 36.0883 175.659 35.8873 175.481 35.5935C175.311 35.292 175.226 34.8591 175.226 34.2948V25.0874H178.74Z" fill="white"/>
<defs>
<linearGradient id="paint0_linear_217_580" x1="72.89" y1="1.59881e-06" x2="46.0665" y2="13.4118" gradientUnits="userSpaceOnUse">
<stop stop-color="white"/>
<stop offset="1" stop-color="white" stop-opacity="0"/>
</linearGradient>
</defs>
</svg>
